<?xml version="1.0" encoding="iso-8859-1"?>
<!-- Generator: Adobe Illustrator 16.0.0, SVG Export Plug-In . SVG Version: 6.00 Build 0)  -->
<!DOCTYPE svg PUBLIC "-//W3C//DTD SVG 1.1//EN" "http://www.w3.org/Graphics/SVG/1.1/DTD/svg11.dtd">
<svg version="1.1" id="Capa_1" xmlns="http://www.w3.org/2000/svg" xmlns:xlink="http://www.w3.org/1999/xlink" x="0px" y="0px"
	 width="753.23px" height="753.23px" viewBox="0 0 753.23 753.23"
	 fill="#ececec"
	 style="enable-background:new 0 0 753.23 753.23;"
	 xml:space="preserve">
<g>
	<g id="Lock">
		<g>
			<path d="M635.538,282.461h-70.615v-94.154C564.923,84.314,480.608,0,376.615,0C272.623,0,188.308,84.291,188.308,188.308v94.154
				h-70.615c-25.987,0-47.077,21.09-47.077,47.077v376.615c0,26.011,21.09,47.077,47.077,47.077h517.846
				c26.01,0,47.077-21.09,47.077-47.077V329.538C682.615,303.528,661.548,282.461,635.538,282.461z M258.923,188.308
				c0-64.896,52.797-117.692,117.692-117.692s117.692,52.797,117.692,117.692v94.154H258.923V188.308z M612,682.615H141.23V353.077
				H612V682.615z"/>
		</g>
	</g>
</g>
<g>
</g>
<g>
</g>
<g>
</g>
<g>
</g>
<g>
</g>
<g>
</g>
<g>
</g>
<g>
</g>
<g>
</g>
<g>
</g>
<g>
</g>
<g>
</g>
<g>
</g>
<g>
</g>
<g>
</g>
</svg>
